<svg xmlns="http://www.w3.org/2000/svg" xmlns:xlink="http://www.w3.org/1999/xlink" width="88" zoomAndPan="magnify" viewBox="0 0 66 72.749999" height="97" preserveAspectRatio="xMidYMid meet" version="1.0"><defs><g/></defs><g fill="#fafafa" fill-opacity="1"><g transform="translate(7.704787, 47.582872)"><g><path d="M -3.765625 -20.890625 C -3.035156 -23.035156 -1.816406 -24.507812 -0.109375 -25.3125 C 1.597656 -26.113281 4.628906 -26.515625 8.984375 -26.515625 C 9.878906 -26.515625 12.164062 -26.476562 15.84375 -26.40625 C 18.507812 -26.332031 20.859375 -25.753906 22.890625 -24.671875 C 24.929688 -23.585938 26.523438 -22.054688 27.671875 -20.078125 C 28.816406 -18.109375 29.390625 -15.816406 29.390625 -13.203125 C 29.390625 -9.253906 28.132812 -6.066406 25.625 -3.640625 C 23.125 -1.210938 19.863281 0 15.84375 0 L 3.0625 0 L 3.09375 -0.375 L 3.546875 -0.375 C 4.171875 -0.375 4.707031 -0.582031 5.15625 -1 C 5.613281 -1.414062 5.878906 -1.925781 5.953125 -2.53125 L 5.953125 -25.265625 C 2.816406 -25.191406 0.59375 -24.703125 -0.71875 -23.796875 C -1.394531 -23.316406 -1.910156 -22.859375 -2.265625 -22.421875 C -2.617188 -21.984375 -2.984375 -21.425781 -3.359375 -20.75 Z M 8.40625 -25.265625 L 8.40625 -1.125 L 15.84375 -1.125 C 19.03125 -1.125 21.609375 -2.226562 23.578125 -4.4375 C 25.554688 -6.65625 26.546875 -9.578125 26.546875 -13.203125 C 26.546875 -15.585938 26.097656 -17.691406 25.203125 -19.515625 C 24.316406 -21.335938 23.0625 -22.75 21.4375 -23.75 C 19.820312 -24.757812 17.957031 -25.265625 15.84375 -25.265625 Z M 8.40625 -25.265625 "/></g></g></g><g fill="#fafafa" fill-opacity="1"><g transform="translate(35.883613, 47.582872)"><g><path d="M 14.9375 -16.453125 C 14.476562 -15.972656 13.960938 -15.617188 13.390625 -15.390625 C 15.847656 -15.035156 17.71875 -14.160156 19 -12.765625 C 20.28125 -11.367188 20.921875 -9.664062 20.921875 -7.65625 C 20.921875 -5.21875 19.941406 -3.242188 17.984375 -1.734375 C 16.023438 -0.222656 13.445312 0.53125 10.25 0.53125 C 7.0625 0.53125 4.5625 -0.253906 2.75 -1.828125 C 0.9375 -3.398438 0.03125 -5.617188 0.03125 -8.484375 C 0.03125 -8.640625 0.03125 -8.789062 0.03125 -8.9375 L 0.453125 -9.015625 C 0.953125 -5.265625 2.507812 -2.835938 5.125 -1.734375 L 5.125 -23.6875 C 5.070312 -24.363281 4.8125 -24.921875 4.34375 -25.359375 C 3.882812 -25.804688 3.328125 -26.03125 2.671875 -26.03125 L 2.21875 -26.03125 L 2.21875 -26.40625 L 8.5625 -26.40625 C 10.914062 -26.40625 12.800781 -25.863281 14.21875 -24.78125 C 15.644531 -23.695312 16.359375 -22.28125 16.359375 -20.53125 C 16.359375 -18.789062 15.882812 -17.429688 14.9375 -16.453125 Z M 7.578125 -25.203125 L 7.578125 -1.0625 C 8.398438 -0.9375 9.351562 -0.875 10.4375 -0.875 C 12.851562 -0.875 14.734375 -1.519531 16.078125 -2.8125 C 17.421875 -4.101562 18.09375 -5.78125 18.09375 -7.84375 C 18.09375 -8.945312 17.882812 -9.925781 17.46875 -10.78125 C 17.0625 -11.632812 16.539062 -12.300781 15.90625 -12.78125 C 14.25 -14.0625 11.910156 -14.703125 8.890625 -14.703125 C 8.867188 -14.703125 8.859375 -14.703125 8.859375 -14.703125 L 8.8125 -15.046875 C 8.84375 -15.046875 8.859375 -15.046875 8.859375 -15.046875 C 10.140625 -15.046875 11.238281 -15.46875 12.15625 -16.3125 C 13.070312 -17.15625 13.53125 -18.457031 13.53125 -20.21875 C 13.53125 -23.539062 11.707031 -25.203125 8.0625 -25.203125 Z M 7.578125 -25.203125 "/></g></g></g><g fill="#fafafa" fill-opacity="1"><g transform="translate(12.326934, 53.833088)"><g><path d="M 0.234375 0 L 0.234375 -1.859375 L 0.9375 -1.859375 C 1.175781 -1.859375 1.363281 -1.773438 1.5 -1.609375 C 1.632812 -1.441406 1.703125 -1.21875 1.703125 -0.9375 C 1.703125 -0.644531 1.632812 -0.414062 1.5 -0.25 C 1.363281 -0.0820312 1.175781 0 0.9375 0 Z M 0.46875 -0.203125 L 0.90625 -0.203125 C 1.082031 -0.203125 1.21875 -0.265625 1.3125 -0.390625 C 1.414062 -0.515625 1.46875 -0.691406 1.46875 -0.921875 C 1.46875 -1.160156 1.414062 -1.335938 1.3125 -1.453125 C 1.21875 -1.578125 1.082031 -1.640625 0.90625 -1.640625 L 0.46875 -1.640625 Z M 0.46875 -0.203125 "/></g></g></g><g fill="#fafafa" fill-opacity="1"><g transform="translate(15.96878, 53.833088)"><g><path d="M 1.40625 -1.859375 L 1.640625 -1.859375 L 1.640625 -0.546875 C 1.640625 -0.359375 1.570312 -0.207031 1.4375 -0.09375 C 1.3125 0.0078125 1.140625 0.0625 0.921875 0.0625 C 0.703125 0.0625 0.53125 0.0078125 0.40625 -0.09375 C 0.28125 -0.207031 0.21875 -0.359375 0.21875 -0.546875 L 0.21875 -1.859375 L 0.453125 -1.859375 L 0.453125 -0.546875 C 0.453125 -0.410156 0.492188 -0.3125 0.578125 -0.25 C 0.671875 -0.1875 0.785156 -0.15625 0.921875 -0.15625 C 1.078125 -0.15625 1.195312 -0.1875 1.28125 -0.25 C 1.363281 -0.320312 1.40625 -0.421875 1.40625 -0.546875 Z M 1.40625 -1.859375 "/></g></g></g><g fill="#fafafa" fill-opacity="1"><g transform="translate(19.610627, 53.833088)"><g><path d="M 1.875 0 L 1.75 0.15625 L 1.484375 -0.078125 C 1.335938 0.015625 1.175781 0.0625 1 0.0625 C 0.726562 0.0625 0.507812 -0.0234375 0.34375 -0.203125 C 0.175781 -0.390625 0.09375 -0.625 0.09375 -0.90625 C 0.09375 -1.195312 0.175781 -1.429688 0.34375 -1.609375 C 0.507812 -1.796875 0.722656 -1.890625 0.984375 -1.890625 C 1.253906 -1.890625 1.472656 -1.796875 1.640625 -1.609375 C 1.804688 -1.429688 1.890625 -1.203125 1.890625 -0.921875 C 1.890625 -0.628906 1.800781 -0.382812 1.625 -0.1875 Z M 1.21875 -0.53125 L 1.453125 -0.34375 C 1.585938 -0.488281 1.65625 -0.679688 1.65625 -0.921875 C 1.65625 -1.148438 1.59375 -1.332031 1.46875 -1.46875 C 1.351562 -1.601562 1.195312 -1.671875 1 -1.671875 C 0.800781 -1.671875 0.640625 -1.601562 0.515625 -1.46875 C 0.390625 -1.332031 0.328125 -1.144531 0.328125 -0.90625 C 0.328125 -0.675781 0.382812 -0.492188 0.5 -0.359375 C 0.625 -0.222656 0.785156 -0.15625 0.984375 -0.15625 C 1.085938 -0.15625 1.191406 -0.175781 1.296875 -0.21875 L 1.109375 -0.375 Z M 1.21875 -0.53125 "/></g></g></g><g fill="#fafafa" fill-opacity="1"><g transform="translate(23.395309, 53.833088)"><g><path d="M 1.40625 -1.859375 L 1.640625 -1.859375 L 1.640625 -0.546875 C 1.640625 -0.359375 1.570312 -0.207031 1.4375 -0.09375 C 1.3125 0.0078125 1.140625 0.0625 0.921875 0.0625 C 0.703125 0.0625 0.53125 0.0078125 0.40625 -0.09375 C 0.28125 -0.207031 0.21875 -0.359375 0.21875 -0.546875 L 0.21875 -1.859375 L 0.453125 -1.859375 L 0.453125 -0.546875 C 0.453125 -0.410156 0.492188 -0.3125 0.578125 -0.25 C 0.671875 -0.1875 0.785156 -0.15625 0.921875 -0.15625 C 1.078125 -0.15625 1.195312 -0.1875 1.28125 -0.25 C 1.363281 -0.320312 1.40625 -0.421875 1.40625 -0.546875 Z M 1.40625 -1.859375 "/></g></g></g><g fill="#fafafa" fill-opacity="1"><g transform="translate(27.037156, 53.833088)"><g><path d="M 1.203125 -0.5625 L 0.5 -0.5625 L 0.296875 0 L 0.046875 0 L 0.703125 -1.859375 L 1.015625 -1.859375 L 1.65625 0 L 1.40625 0 Z M 1.140625 -0.75 L 0.859375 -1.609375 L 0.546875 -0.75 Z M 1.140625 -0.75 "/></g></g></g><g fill="#fafafa" fill-opacity="1"><g transform="translate(30.538998, 53.833088)"><g><path d="M 1.640625 -1.859375 L 1.640625 0 L 1.375 0 L 0.421875 -1.5 L 0.421875 0 L 0.1875 0 L 0.1875 -1.859375 L 0.453125 -1.859375 L 1.421875 -0.34375 L 1.421875 -1.859375 Z M 1.640625 -1.859375 "/></g></g></g><g fill="#fafafa" fill-opacity="1"><g transform="translate(34.180844, 53.833088)"><g/></g></g><g fill="#fafafa" fill-opacity="1"><g transform="translate(36.692747, 53.833088)"><g><path d="M 1.59375 -0.53125 C 1.59375 -0.375 1.539062 -0.242188 1.4375 -0.140625 C 1.332031 -0.046875 1.195312 0 1.03125 0 L 0.203125 0 L 0.203125 -1.859375 L 0.953125 -1.859375 C 1.035156 -1.859375 1.109375 -1.847656 1.171875 -1.828125 C 1.242188 -1.804688 1.296875 -1.78125 1.328125 -1.75 C 1.367188 -1.71875 1.398438 -1.675781 1.421875 -1.625 C 1.453125 -1.582031 1.472656 -1.539062 1.484375 -1.5 C 1.492188 -1.46875 1.5 -1.429688 1.5 -1.390625 C 1.5 -1.191406 1.414062 -1.054688 1.25 -0.984375 C 1.363281 -0.929688 1.445312 -0.867188 1.5 -0.796875 C 1.5625 -0.734375 1.59375 -0.644531 1.59375 -0.53125 Z M 1.265625 -1.34375 C 1.265625 -1.40625 1.253906 -1.457031 1.234375 -1.5 C 1.210938 -1.539062 1.179688 -1.570312 1.140625 -1.59375 C 1.109375 -1.613281 1.070312 -1.625 1.03125 -1.625 C 1 -1.632812 0.953125 -1.640625 0.890625 -1.640625 L 0.4375 -1.640625 L 0.4375 -1.0625 L 0.890625 -1.0625 C 1.015625 -1.0625 1.109375 -1.082031 1.171875 -1.125 C 1.234375 -1.164062 1.265625 -1.238281 1.265625 -1.34375 Z M 1.015625 -0.203125 C 1.078125 -0.203125 1.128906 -0.210938 1.171875 -0.234375 C 1.222656 -0.253906 1.257812 -0.28125 1.28125 -0.3125 C 1.300781 -0.351562 1.316406 -0.390625 1.328125 -0.421875 C 1.335938 -0.453125 1.34375 -0.488281 1.34375 -0.53125 C 1.34375 -0.625 1.3125 -0.695312 1.25 -0.75 C 1.195312 -0.8125 1.117188 -0.84375 1.015625 -0.84375 L 0.4375 -0.84375 L 0.4375 -0.203125 Z M 1.015625 -0.203125 "/></g></g></g><g fill="#fafafa" fill-opacity="1"><g transform="translate(40.194591, 53.833088)"><g><path d="M 1.359375 -0.921875 C 1.421875 -0.890625 1.472656 -0.851562 1.515625 -0.8125 C 1.554688 -0.769531 1.582031 -0.726562 1.59375 -0.6875 C 1.601562 -0.644531 1.609375 -0.597656 1.609375 -0.546875 C 1.617188 -0.503906 1.625 -0.457031 1.625 -0.40625 C 1.625 -0.363281 1.625 -0.316406 1.625 -0.265625 C 1.625 -0.222656 1.628906 -0.179688 1.640625 -0.140625 C 1.660156 -0.109375 1.691406 -0.0820312 1.734375 -0.0625 L 1.734375 0 L 1.4375 0 C 1.40625 -0.0820312 1.390625 -0.179688 1.390625 -0.296875 L 1.390625 -0.46875 C 1.390625 -0.582031 1.363281 -0.664062 1.3125 -0.71875 C 1.269531 -0.769531 1.191406 -0.796875 1.078125 -0.796875 L 0.46875 -0.796875 L 0.46875 0 L 0.234375 0 L 0.234375 -1.859375 L 1.09375 -1.859375 C 1.269531 -1.859375 1.40625 -1.8125 1.5 -1.71875 C 1.601562 -1.632812 1.65625 -1.515625 1.65625 -1.359375 C 1.65625 -1.253906 1.628906 -1.164062 1.578125 -1.09375 C 1.535156 -1.03125 1.460938 -0.972656 1.359375 -0.921875 Z M 1.40625 -1.328125 C 1.40625 -1.390625 1.394531 -1.441406 1.375 -1.484375 C 1.363281 -1.523438 1.335938 -1.554688 1.296875 -1.578125 C 1.265625 -1.609375 1.226562 -1.625 1.1875 -1.625 C 1.144531 -1.632812 1.097656 -1.640625 1.046875 -1.640625 L 0.46875 -1.640625 L 0.46875 -1.015625 L 1.046875 -1.015625 C 1.171875 -1.015625 1.257812 -1.035156 1.3125 -1.078125 C 1.375 -1.128906 1.40625 -1.210938 1.40625 -1.328125 Z M 1.40625 -1.328125 "/></g></g></g><g fill="#fafafa" fill-opacity="1"><g transform="translate(43.836437, 53.833088)"><g><path d="M 1.890625 -0.90625 C 1.890625 -0.769531 1.867188 -0.640625 1.828125 -0.515625 C 1.785156 -0.398438 1.722656 -0.300781 1.640625 -0.21875 C 1.566406 -0.132812 1.472656 -0.0664062 1.359375 -0.015625 C 1.253906 0.0351562 1.132812 0.0625 1 0.0625 C 0.726562 0.0625 0.507812 -0.0234375 0.34375 -0.203125 C 0.175781 -0.390625 0.09375 -0.628906 0.09375 -0.921875 C 0.09375 -1.203125 0.175781 -1.429688 0.34375 -1.609375 C 0.507812 -1.796875 0.722656 -1.890625 0.984375 -1.890625 C 1.265625 -1.890625 1.484375 -1.796875 1.640625 -1.609375 C 1.804688 -1.429688 1.890625 -1.195312 1.890625 -0.90625 Z M 0.984375 -1.671875 C 0.796875 -1.671875 0.640625 -1.601562 0.515625 -1.46875 C 0.390625 -1.332031 0.328125 -1.144531 0.328125 -0.90625 C 0.328125 -0.675781 0.390625 -0.492188 0.515625 -0.359375 C 0.640625 -0.222656 0.800781 -0.15625 1 -0.15625 C 1.1875 -0.15625 1.34375 -0.222656 1.46875 -0.359375 C 1.59375 -0.492188 1.65625 -0.675781 1.65625 -0.90625 C 1.65625 -1.132812 1.59375 -1.316406 1.46875 -1.453125 C 1.351562 -1.597656 1.191406 -1.671875 0.984375 -1.671875 Z M 0.984375 -1.671875 "/></g></g></g><g fill="#fafafa" fill-opacity="1"><g transform="translate(47.621118, 53.833088)"><g><path d="M 1.890625 0 L 1.640625 0 L 1.203125 -1.53125 L 0.796875 0 L 0.53125 0 L 0.0625 -1.859375 L 0.328125 -1.859375 L 0.671875 -0.34375 L 1.078125 -1.859375 L 1.34375 -1.859375 L 1.765625 -0.34375 L 2.109375 -1.859375 L 2.375 -1.859375 Z M 1.890625 0 "/></g></g></g><g fill="#fafafa" fill-opacity="1"><g transform="translate(51.828646, 53.833088)"><g><path d="M 1.640625 -1.859375 L 1.640625 0 L 1.375 0 L 0.421875 -1.5 L 0.421875 0 L 0.1875 0 L 0.1875 -1.859375 L 0.453125 -1.859375 L 1.421875 -0.34375 L 1.421875 -1.859375 Z M 1.640625 -1.859375 "/></g></g></g></svg>